<svg xmlns="http://www.w3.org/2000/svg" width="256" height="256" viewBox="0 0 256 256">
  <defs>
    <linearGradient id="gold" x1="0" y1="0" x2="1" y2="1">
      <stop offset="0" stop-color="#fff1a1"/><stop offset="0.22" stop-color="#e3aa20"/><stop offset="0.5" stop-color="#fff0a0"/><stop offset="0.74" stop-color="#ad6b08"/><stop offset="1" stop-color="#ffd95b"/>
    </linearGradient>
    <linearGradient id="green" x1="0" y1="0" x2="0" y2="1"><stop offset="0" stop-color="#0c4b32"/><stop offset="1" stop-color="#032d20"/></linearGradient>
    <filter id="shadow" x="-20%" y="-20%" width="140%" height="140%"><feGaussianBlur stdDeviation="1.6" result="b"/><feMerge><feMergeNode in="b"/><feMergeNode in="SourceGraphic"/></feMerge></filter>
  </defs>
  <path d="M12 2h232a10 10 0 0 1 10 10v232a10 10 0 0 1-10 10H12A10 10 0 0 1 2 244V12A10 10 0 0 1 12 2z" fill="url(#green)" stroke="url(#gold)" stroke-width="5"/>
  <path d="M17 9h222a8 8 0 0 1 8 8v222a8 8 0 0 1-8 8H17a8 8 0 0 1-8-8V17a8 8 0 0 1 8-8z" fill="none" stroke="#6e4305" stroke-width="2"/>
  <path d="M24 16h208a8 8 0 0 1 8 8v208a8 8 0 0 1-8 8H24a8 8 0 0 1-8-8V24a8 8 0 0 1 8-8z" fill="none" stroke="url(#gold)" stroke-width="2"/>
  <g fill="none" stroke="url(#gold)" stroke-width="2.2" stroke-linecap="round" stroke-linejoin="round" filter="url(#shadow)">
    <path d="M16 52C17 31 31 17 52 16M16 39c9-2 15-8 18-17M39 16c-2 9-8 15-17 18M22 22l18 18M25 47c8-4 15-11 22-22"/>
    <path d="M240 52c-1-21-15-35-36-36m36 23c-9-2-15-8-18-17m-5-6c2 9 8 15 17 18m0-12-18 18m15 7c-8-4-15-11-22-22"/>
    <path d="M16 204c1 21 15 35 36 36m-36-23c9 2 15 8 18 17m5 6c-2-9-8-15-17-18m0 12 18-18m-15-7c8 4 15 11 22 22"/>
    <path d="M240 204c-1 21-15 35-36 36m36-23c-9 2-15 8-18 17m-5 6c2-9 8-15 17-18m0 12-18-18m15-7c-8 4-15 11-22 22"/>
    <path d="M88 16c15 0 23-8 28-14m52 14c-15 0-23-8-28-14M88 240c15 0 23 8 28 14m52-14c-15 0-23 8-28 14"/>
  </g>
  <g filter="url(#shadow)">
    <path d="M128 3l10 13-10 13-10-13z" fill="url(#gold)" stroke="#6e4305" stroke-width="1.5"/><path d="M128 7l6 9-6 9-6-9z" fill="#0b6a43" stroke="#fff1a1" stroke-width="1"/>
    <path d="M128 253l-10-13 10-13 10 13z" fill="url(#gold)" stroke="#6e4305" stroke-width="1.5"/><path d="M128 249l-6-9 6-9 6 9z" fill="#0b6a43" stroke="#fff1a1" stroke-width="1"/>
  </g>
  <rect x="32" y="32" width="192" height="192" rx="7" fill="none" stroke="#06291d" stroke-width="3" opacity="0.8"/>
</svg>
